# xmcd
# 
# Track frame offsets:
#     150
#     14580
#     32850
#     47454
#     64588
#     78131
#     94971
#     113183
#     131255
#     147124
#     165321
#     181764
# 
# Disc length: 2686
# 
# Revision: 20
# Processed by: cddbd v1.5.2PL0 Copyright (c) Steve Scherf et al.
# Submitted via: fre:ac v1.0.17
# 
DISCID=8e0a7c0c
DTITLE=Various Artist - Pictures
DYEAR=2007
DGENRE=Jazz
TTITLE0=Katie Melua - Mary Pickford
TTITLE1=Ketevan ''Katie'' Melua - It's All in My Head
TTITLE2=Ketevan ''Katie'' Melua - If the Lights Go Out
TTITLE3=Ketevan ''Katie'' Melua - What I Miss About You
TTITLE4=Ketevan ''Katie'' Melua - Spellbound
TTITLE5=Ketevan ''Katie'' Melua - What it Says on the Tin
TTITLE6=Ketevan ''Katie'' Melua - Scary Films
TTITLE7=Ketevan ''Katie'' Melua - Perfect Circle
TTITLE8=Ketevan ''Katie'' Melua - Ghost Town
TTITLE9=Katie Melua - If You Were A Sailboat
TTITLE10=Katie Melua - Dirty Dice
TTITLE11=Ketevan ''Katie'' Melua - In My Secret Life
EXTD=YEAR: 2007
EXTT0=
EXTT1=
EXTT2=
EXTT3=
EXTT4=
EXTT5=
EXTT6=
EXTT7=
EXTT8=
EXTT9=
EXTT10=
EXTT11=
PLAYORDER=
